<svg width="34" height="32" viewBox="0 0 34 32" fill="none" xmlns="http://www.w3.org/2000/svg">
<g clip-path="url(#clip0_2_66)">
<path d="M17.0028 0C8.11342 0 0.90625 7.20717 0.90625 16.0966C0.90625 24.1296 6.79175 30.7878 14.4883 32V20.7506H10.3994V16.0966H14.4883V12.5502C14.4883 8.51273 16.8918 6.28635 20.567 6.28635C22.3281 6.28635 24.173 6.60026 24.173 6.60026V10.5588H22.1382C20.142 10.5588 19.5174 11.8016 19.5174 13.075V16.0934H23.9782L23.265 20.7474H19.5174V31.9968C27.2139 30.791 33.0994 24.1312 33.0994 16.0966C33.0994 7.20717 25.8923 0 17.0028 0Z" fill="#113639"/>
</g>
<defs>
<clipPath id="clip0_2_66">
<rect width="34" height="32" fill="white"/>
</clipPath>
</defs>
</svg>
