<svg width="33" height="32" viewBox="0 0 33 32" fill="none" xmlns="http://www.w3.org/2000/svg">
<g clip-path="url(#clip0_2_63)">
<path d="M16.9019 10.6644C13.964 10.6644 11.5664 13.062 11.5664 16C11.5664 18.938 13.964 21.3356 16.9019 21.3356C19.8399 21.3356 22.2375 18.938 22.2375 16C22.2375 13.062 19.8399 10.6644 16.9019 10.6644ZM32.9045 16C32.9045 13.7905 32.9245 11.601 32.8004 9.39554C32.6763 6.83381 32.0919 4.56027 30.2187 2.68701C28.3415 0.809737 26.072 0.229345 23.5103 0.105261C21.3008 -0.018823 19.1114 0.00119058 16.906 0.00119058C14.6965 0.00119058 12.5071 -0.018823 10.3016 0.105261C7.73993 0.229345 5.46644 0.813739 3.59321 2.68701C1.71597 4.56427 1.13559 6.83381 1.01151 9.39554C0.887427 11.605 0.907441 13.7945 0.907441 16C0.907441 18.2055 0.887427 20.399 1.01151 22.6045C1.13559 25.1662 1.71997 27.4397 3.59321 29.313C5.47044 31.1903 7.73993 31.7707 10.3016 31.8947C12.5111 32.0188 14.7005 31.9988 16.906 31.9988C19.1154 31.9988 21.3048 32.0188 23.5103 31.8947C26.072 31.7707 28.3455 31.1863 30.2187 29.313C32.0959 27.4357 32.6763 25.1662 32.8004 22.6045C32.9285 20.399 32.9045 18.2095 32.9045 16ZM16.9019 24.2095C12.359 24.2095 8.69256 20.5431 8.69256 16C8.69256 11.4569 12.359 7.79045 16.9019 7.79045C21.4449 7.79045 25.1113 11.4569 25.1113 16C25.1113 20.5431 21.4449 24.2095 16.9019 24.2095ZM25.4476 9.37152C24.3869 9.37152 23.5303 8.51494 23.5303 7.45423C23.5303 6.39351 24.3869 5.53693 25.4476 5.53693C26.5083 5.53693 27.3648 6.39351 27.3648 7.45423C27.3651 7.7061 27.3158 7.95556 27.2195 8.18832C27.1233 8.42108 26.9821 8.63256 26.804 8.81066C26.6259 8.98876 26.4144 9.12998 26.1816 9.22622C25.9489 9.32246 25.6994 9.37184 25.4476 9.37152Z" fill="#113639"/>
</g>
<defs>
<clipPath id="clip0_2_63">
<rect width="33" height="32" fill="white"/>
</clipPath>
</defs>
</svg>
