<svg width="1060" height="593" viewBox="0 0 1060 593" fill="none" xmlns="http://www.w3.org/2000/svg">
<path d="M2 15.0693C30.6603 10.9219 58.8561 11.5625 87.6756 13.7267C95.0547 14.2809 100.803 17.1277 108.453 16.0207" stroke="black" stroke-width="4" stroke-linecap="round"/>
<path d="M233.957 103.08H233.829L233.701 103.208C232.421 105.256 224.101 114.728 221.797 117.16C221.413 117.672 220.901 118.056 220.389 118.568L217.445 121.256L216.677 122.024C215.781 122.792 214.757 123.56 213.477 124.072C212.453 124.456 211.685 124.2 211.045 123.304C210.661 122.792 210.277 122.152 210.021 121.512C208.485 118.056 207.717 114.344 206.949 110.76V110.632L206.181 106.408C205.669 103.592 205.029 100.648 204.133 97.832C203.749 96.552 203.365 95.4 202.469 94.504C201.701 93.736 200.933 93.352 200.293 93.352C199.653 93.352 199.013 93.736 198.373 94.504C197.477 95.656 196.837 96.936 196.453 98.088C192.485 108.2 189.285 119.08 186.725 131.368L186.341 134.056C185.957 136.36 185.445 138.664 184.805 141.096C184.677 140.584 184.677 140.2 184.677 139.816V139.688C184.165 133.672 183.909 127.528 183.653 121.512L183.397 116.392C183.397 115.496 183.269 114.728 183.269 113.832L183.013 109.992C183.013 109.352 182.885 108.712 182.885 108.072L182.117 89.768C182.117 88.104 181.989 86.312 181.989 84.648L181.605 72.36C181.605 71.336 181.477 70.44 181.477 69.416C181.221 62.504 180.837 55.208 180.837 48.168C180.837 46.376 180.965 44.712 180.965 42.92C180.965 42.536 181.093 42.152 181.093 41.768C181.093 41.384 181.093 41 181.221 40.616V39.848L181.733 40.872C181.989 40.872 182.117 40.744 182.373 40.744V39.72L181.989 38.184C181.861 37.672 181.733 37.032 180.965 36.904C180.069 36.776 179.941 37.544 179.813 37.928V38.184C179.429 40.232 179.173 42.408 179.173 45.224V50.344C179.173 57.256 179.301 64.168 179.557 70.952L179.941 77.096C180.325 89.64 180.837 102.312 181.349 114.856C181.733 123.176 182.245 131.624 182.757 139.688V140.328C182.885 141.608 183.013 142.888 183.525 144.168C183.653 144.68 183.909 144.936 184.293 145.064C184.549 145.192 184.933 145.192 185.317 145.192C186.085 145.192 186.341 144.552 186.469 144.04L187.365 141.48C188.005 138.792 188.645 135.976 189.157 133.288C189.925 129.32 190.821 125.224 191.973 121.256L192.613 118.696C194.405 112.04 196.453 105.64 199.013 99.24C199.525 97.832 200.037 96.808 200.677 95.912C201.061 95.528 201.189 95.528 201.189 95.528C201.189 95.528 201.317 95.656 201.445 96.168L201.829 96.936L202.597 99.624L203.621 104.36L204.133 106.664C204.773 109.608 205.413 112.68 206.181 115.624C206.181 115.752 206.309 116.008 206.309 116.136C206.821 118.056 207.461 120.104 208.357 121.896C208.613 122.536 208.997 123.176 209.381 123.688C210.405 125.352 211.813 126.248 213.221 126.504C214.629 126.76 216.165 126.504 217.829 125.48L219.109 124.456L220.773 122.92C222.949 120.872 224.869 118.696 226.661 116.392L226.789 116.264C230.885 111.528 235.621 105.64 235.237 104.232L234.213 103.336C234.213 103.208 234.085 103.08 233.957 103.08ZM265.284 99.368C265.028 98.856 264.388 98.728 263.748 98.984C262.084 99.624 260.676 100.52 259.524 101.544C257.092 103.72 254.788 106.152 252.612 108.456L246.852 114.216C244.292 116.904 241.604 119.72 238.404 121.896C236.228 123.432 234.692 123.944 233.668 123.432C232.644 122.92 232.004 121.512 231.62 118.952V118.568C231.62 117.8 231.748 117.288 232.644 117.032C234.052 116.648 235.204 115.624 236.1 114.728C240.196 111.016 242.884 106.92 244.42 102.184C244.932 100.648 245.444 98.6 244.932 96.552C244.548 95.272 243.78 94.248 242.628 93.736C241.476 93.352 240.196 93.48 239.044 94.12C238.02 94.76 237.124 95.656 236.356 96.808C232.132 102.696 229.7 109.48 229.06 117.032C229.06 118.312 229.188 119.592 229.572 120.872C229.956 122.536 230.852 123.816 232.132 124.584C232.9 125.096 233.796 125.352 234.82 125.352C235.46 125.352 236.1 125.224 236.74 125.096C238.276 124.712 239.812 124.072 241.092 123.176C245.316 120.104 248.772 116.264 252.1 112.552L254.148 110.248L256.452 107.56C258.756 104.872 261.06 102.056 264.516 100.52C264.772 100.392 265.156 100.264 265.284 100.008C265.284 99.88 265.284 99.752 265.156 99.624L265.284 99.368ZM231.876 115.368L232.26 114.216C232.516 112.936 232.772 111.656 233.156 110.376C234.564 105.512 236.228 101.8 238.532 98.6C239.428 97.448 240.196 96.68 241.092 96.168C241.604 95.912 241.988 95.784 242.244 95.784H242.372C242.628 95.912 242.756 96.296 242.884 96.936C243.012 97.32 243.012 97.704 243.012 97.96V98.344C242.884 100.008 242.628 101.544 242.116 102.952C240.452 107.432 237.892 111.4 234.436 114.728C233.924 115.24 233.412 115.624 232.772 116.008C232.516 116.264 232.388 116.392 232.26 116.264C232.132 116.136 232.132 116.008 232.26 115.624L231.876 115.368ZM316.683 106.664C316.299 106.152 316.043 105.896 315.787 105.896C315.403 105.896 315.275 106.408 315.147 106.92L315.019 107.048L313.867 109.736L312.331 113.704C311.051 117.032 309.515 120.36 307.723 123.432C307.211 124.456 306.571 125.352 305.931 126.376C305.035 127.784 303.883 129.192 302.603 130.472C301.451 131.496 300.555 131.88 299.787 131.752C298.891 131.624 298.123 130.856 297.355 129.448C297.227 129.448 297.227 129.448 297.227 129.32V128.68C295.307 124.712 294.283 120.488 293.259 116.392L293.003 115.496C292.619 114.088 292.363 112.68 292.107 111.272C291.595 108.968 291.083 106.536 290.315 104.232C289.931 103.08 289.547 101.928 288.523 101.032C288.011 100.648 287.371 100.264 286.603 100.776L286.219 101.16C284.939 102.056 283.659 102.952 283.019 104.616C282.763 105.384 282.379 106.152 281.995 106.92L281.227 108.456C275.339 121 270.603 133.032 266.891 145.192V145.576C266.763 145.832 266.635 146.088 266.379 146.344C265.995 135.592 265.867 126.632 265.995 118.056V109.864C266.123 106.024 266.123 102.056 266.123 98.088V93.736C266.123 92.968 266.123 92.2 265.483 91.56C265.227 91.304 264.843 90.92 264.331 91.048C264.075 91.176 263.819 91.304 263.819 91.432C263.691 91.56 263.819 91.688 263.819 91.816V96.424C263.819 99.24 263.819 102.184 263.691 105C263.435 110.76 263.307 116.648 263.307 122.792C263.307 130.344 263.435 138.152 263.819 146.344C263.819 147.624 264.075 148.904 264.331 150.056C264.459 150.952 265.099 151.464 266.123 151.592C266.763 151.592 267.019 150.952 267.147 150.44V150.056C267.531 149.16 267.787 148.264 268.043 147.368C270.219 139.816 272.907 132.264 275.851 125.096L276.619 123.176C279.179 116.776 281.867 110.248 285.323 104.104L285.707 103.336C285.963 102.44 286.219 101.928 286.859 102.056C287.499 102.184 287.627 103.08 287.755 103.976V104.744L289.291 111.4C290.059 115.112 290.955 118.952 292.107 122.664C292.875 125.224 293.771 128.04 295.435 130.6C296.843 132.776 298.891 133.672 301.067 133.16C302.731 132.776 303.755 131.496 304.523 130.472C307.211 127.272 309.003 123.432 310.667 119.72C311.051 118.824 311.435 117.928 311.947 117.032C313.227 114.472 314.763 111.144 315.531 107.432V106.536C315.915 106.536 316.299 106.664 316.683 106.664ZM346.888 107.688C344.072 112.552 341.384 117.416 338.312 122.024L337.416 123.432C335.496 126.12 333.576 128.808 331.016 131.112C330.76 131.368 330.376 131.88 329.864 131.624C329.48 131.496 329.608 130.984 329.608 130.6C329.096 127.016 329.608 123.432 330.12 119.848C331.4 110.888 333.576 102.184 336.008 93.48C336.648 91.176 337.16 88.872 337.16 86.44C337.16 82.216 334.472 79.784 330.248 80.168L322.952 81.064C321.16 81.192 319.368 81.192 318.6 79.016C318.6 78.888 318.472 78.76 318.344 78.632C317.96 78.248 317.576 77.608 316.936 77.992C316.296 78.504 316.808 79.144 317.064 79.656L317.704 80.68C318.088 81.32 318.472 81.96 318.6 82.856L318.856 85.928C318.856 86.44 318.984 86.952 318.984 87.464V89.256C318.6 95.272 316.808 100.776 314.888 106.408L314.376 107.944C314.248 108.2 314.376 108.456 314.504 108.584C314.632 108.712 314.76 108.968 315.016 108.968C315.528 109.096 315.784 108.712 315.912 108.328C316.168 107.688 316.424 107.048 316.552 106.408C317.192 104.36 317.704 102.312 318.472 100.392C320.008 96.04 320.904 91.688 320.648 87.08C320.648 86.44 320.52 85.928 320.52 85.288C320.392 84.392 319.752 83.112 320.136 82.6C320.648 81.832 321.8 82.728 322.696 82.728C325 82.728 327.048 82.344 329.224 82.088C329.736 81.96 330.376 81.96 330.888 81.96C332.424 81.832 333.448 81.832 334.088 82.472C334.728 83.112 334.856 84.136 334.728 85.672V86.44C334.216 89.768 333.32 93.096 332.296 96.296C331.784 97.96 331.272 99.496 330.888 101.16C328.968 108.584 327.304 115.88 326.92 123.304C326.92 123.816 326.792 124.456 326.792 124.968L327.048 129.448C327.048 129.96 327.176 130.472 327.304 130.856C328.2 133.8 330.76 134.568 333.064 132.52L334.216 131.368L337.16 127.784L338.184 126.376C341.256 122.152 343.944 117.544 346.504 113.064L349.064 108.584C349.576 107.688 350.344 106.536 349.192 105.896V106.024C347.912 105.384 347.4 106.792 346.888 107.688ZM416.472 105.256C416.216 105.256 415.832 105 415.704 105.512C415.576 105.896 416.088 106.024 416.344 106.024C417.624 106.152 417.368 106.92 416.984 107.688C416.344 109.352 415.32 110.76 414.296 112.168C406.872 121.64 396.76 127.784 386.648 133.8C386.136 134.056 386.008 134.056 385.88 133.928C385.752 133.8 385.752 133.544 385.752 133.16L384.6 117.032L384.216 110.632C383.96 106.28 383.832 101.928 383.448 97.704C383.32 96.552 383.192 95.4 382.68 94.376C381.656 92.456 380.12 92.2 378.712 93.864C377.944 94.76 377.304 95.784 376.664 96.808C372.312 103.976 367.96 111.144 362.456 117.544C359.768 120.744 357.08 123.944 353.496 126.12C352.344 126.888 351.576 127.016 350.936 126.76C350.296 126.504 349.912 125.736 349.656 124.328C349.144 122.28 348.888 120.232 348.888 118.056C348.888 116.008 349.144 113.832 349.4 111.656C350.168 106.28 351.576 101.032 352.984 95.784C353.496 93.864 354.264 92.072 354.52 90.152C354.648 89 353.88 88.488 352.984 88.232C351.96 87.976 351.96 89 351.96 89.512C351.704 92.456 350.936 95.016 350.168 97.832L349.4 100.648C347.992 106.152 347.096 111.656 346.968 117.288C346.84 119.976 346.84 122.664 347.864 125.224C349.016 128.296 351.704 129.32 354.648 128.04C355.672 127.656 356.568 127.016 357.464 126.376C360.792 123.688 363.608 120.488 366.296 117.16C371.16 111.272 375.128 104.744 379.096 98.216C379.608 97.32 379.992 96.296 381.016 95.528C381.4 96.04 381.4 96.552 381.4 97.064C381.784 101.544 381.784 106.024 382.04 110.504L383.32 131.624C383.32 132.648 383.32 133.672 383.448 134.696C383.448 135.592 383.192 136.104 382.424 136.488C369.368 143.4 355.672 148.52 341.72 153.128L335.576 155.048C328.408 157.224 321.112 159.4 314.2 162.728C309.464 165.032 306.008 168.232 304.6 173.48C304.6 173.608 304.472 173.736 304.344 173.864V176.936C304.472 177.064 304.6 177.192 304.6 177.32C305.112 180.52 306.648 183.336 308.696 185.896C314.2 192.68 321.496 196.648 329.688 198.952C334.68 200.36 339.672 201 344.664 200.872C350.68 200.744 356.568 199.336 362.456 197.16C371.288 193.832 377.816 188.072 381.656 179.496C385.112 171.816 386.264 163.624 386.648 155.304C386.776 153.384 386.776 151.336 386.776 149.416C386.776 146.472 386.52 143.656 386.392 140.712C386.392 139.688 386.264 138.664 386.264 137.768C386.264 136.872 386.52 136.36 387.416 135.848C391.896 133.416 396.248 130.6 400.472 127.656C407 123.048 413.016 117.8 417.24 110.888C417.88 109.864 418.52 108.84 418.776 107.56C418.904 106.92 418.776 106.28 418.392 105.768C418.008 105.384 417.496 105.128 416.856 105L416.472 105.256ZM381.528 171.56C377.944 186.28 368.344 194.728 353.752 197.928C349.784 198.824 345.816 199.208 341.848 199.208C336.6 199.208 331.352 198.312 326.104 196.392C319.704 193.832 314.072 190.12 309.848 184.616C307.672 181.8 306.136 178.6 306.264 174.888C306.392 171.816 307.416 169.256 310.104 167.08C314.072 163.88 318.552 161.96 323.16 160.296L330.072 157.992L336.6 155.816C338.776 155.176 340.952 154.408 343.128 153.64L352.472 150.696C362.2 147.496 371.672 143.784 380.888 139.176C383.832 137.64 383.832 137.64 383.96 140.968V148.264C384.088 156.072 383.448 163.752 381.528 171.304V171.56ZM492.203 89.256L490.155 89.64C486.059 90.664 482.347 92.328 479.403 95.528C479.019 95.912 478.635 96.296 478.379 96.808C477.483 98.216 477.227 99.88 477.611 101.544L478.379 105.128C479.019 107.56 479.659 109.992 480.043 112.424C480.427 114.344 480.555 116.264 480.555 118.184C480.555 120.744 480.299 123.304 479.403 125.736C478.763 127.656 477.739 129.32 476.075 130.472C475.051 131.112 474.283 131.368 473.387 130.984C473.003 130.856 472.619 130.472 472.107 130.088C470.571 128.68 469.419 126.76 468.523 124.84C466.731 120.872 465.579 116.648 464.811 112.296C464.427 109.864 463.915 107.432 463.403 105C463.147 103.848 462.379 103.336 461.355 103.208C460.331 103.08 460.075 103.848 459.691 104.488L458.155 107.56C455.595 112.808 452.907 118.056 449.579 122.92C448.939 123.816 448.299 124.712 447.531 125.48C447.019 125.992 446.763 126.248 446.507 126.12C446.251 126.12 446.123 125.736 445.995 125.096C445.739 124.2 445.611 123.304 445.611 122.408C445.355 114.6 446.635 106.92 448.555 99.368C448.683 98.856 449.195 98.216 448.299 97.832C447.531 97.576 447.019 97.96 446.763 98.728L445.867 101.416C444.715 105.896 443.947 110.376 443.563 114.856C443.435 116.264 443.307 117.544 443.307 118.952C443.179 121 443.307 123.176 443.819 125.224C444.587 128.168 447.147 128.936 449.451 127.016C450.091 126.504 450.603 125.864 451.115 125.224L452.395 123.432C454.059 121 455.467 118.568 456.875 116.008L457.771 114.344C458.923 112.04 460.075 109.608 461.355 107.304C461.867 107.816 461.867 108.2 461.867 108.584C462.379 111.4 462.891 114.216 463.659 116.904C464.811 120.616 466.091 124.2 468.139 127.528L469.163 129.192C470.443 130.984 471.979 132.392 474.283 132.776C477.739 133.288 480.427 131.368 481.835 127.528C482.859 124.84 483.243 122.152 483.243 119.336C483.243 117.288 482.987 115.112 482.731 113.064C482.219 109.608 481.195 106.152 480.299 102.696C479.531 99.88 480.299 97.704 482.475 95.784C485.035 93.48 488.107 92.072 491.307 91.176L493.227 90.792C493.739 90.664 494.251 90.536 494.763 90.28C495.275 90.024 495.275 89.512 495.147 89V89.256C495.019 88.616 494.507 88.872 494.123 88.872L492.203 89.256ZM500.853 133.672C501.109 133.928 501.493 134.056 501.621 134.184C503.029 134.184 504.949 132.392 504.821 131.24C504.693 129.96 503.797 129.832 503.029 129.704H502.517C501.493 129.704 501.365 130.088 501.237 130.6C501.109 131.112 501.237 131.752 500.853 132.136C500.469 132.52 500.341 133.16 500.853 133.672Z" fill="black"/>
</svg>
