<svg width="33" height="32" viewBox="0 0 33 32" fill="none" xmlns="http://www.w3.org/2000/svg">
<g clip-path="url(#clip0_2_69)">
<path d="M16.3216 0.027C18.0666 0 19.8015 0.016 21.5345 0C21.6395 2.041 22.3736 4.12 23.8675 5.563C25.3585 7.042 27.4676 7.719 29.5196 7.948V13.317C27.5965 13.254 25.6646 12.854 23.9195 12.026C23.1595 11.682 22.4516 11.239 21.7586 10.786C21.7495 14.682 21.7746 18.573 21.7336 22.453C21.6296 24.317 21.0145 26.172 19.9305 27.708C18.1866 30.265 15.1596 31.932 12.0506 31.984C10.1436 32.093 8.23855 31.573 6.61355 30.615C3.92055 29.027 2.02555 26.12 1.74955 23C1.71479 22.3392 1.70945 21.6772 1.73355 21.016C1.97355 18.479 3.22855 16.052 5.17655 14.401C7.38455 12.478 10.4776 11.562 13.3736 12.104C13.4006 14.079 13.3216 16.052 13.3216 18.027C11.9986 17.599 10.4526 17.719 9.29655 18.522C8.45079 19.0792 7.81165 19.8989 7.47755 20.855C7.20155 21.531 7.28055 22.282 7.29655 23C7.61355 25.188 9.71755 27.027 11.9636 26.828C13.4526 26.812 14.8796 25.948 15.6556 24.683C15.9066 24.24 16.1876 23.787 16.2026 23.266C16.3336 20.881 16.2816 18.506 16.2976 16.121C16.3086 10.746 16.2816 5.386 16.3226 0.028L16.3216 0.027Z" fill="#113639"/>
</g>
<defs>
<clipPath id="clip0_2_69">
<rect width="33" height="32" fill="white"/>
</clipPath>
</defs>
</svg>
